<svg width="432" height="176" viewBox="0 0 432 176" fill="none" xmlns="http://www.w3.org/2000/svg">
<path d="M404.69 20.67C414.77 20.67 422.94 28.84 422.94 38.92V136.28C422.94 146.36 414.77 154.53 404.69 154.53H142.17V20.67H404.69ZM404.69 13.14H142.17C138.02 13.14 134.65 16.51 134.65 20.66V154.52C134.65 158.67 138.02 162.04 142.17 162.04H404.69C418.9 162.04 430.46 150.48 430.46 136.27V38.91C430.46 24.7 418.9 13.14 404.69 13.14Z" fill="#DC2E27"></path>
<path d="M162.62 101.7C162.62 96.11 165.14 91.73 170.17 88.56C175.2 85.39 182.62 83.68 192.44 83.43C192.5 82.75 192.55 82.17 192.58 81.71C192.61 81.24 192.63 80.67 192.63 79.99C192.63 78 192.26 76.42 191.51 75.24C190.76 74.06 189.21 73.47 186.85 73.47C185.55 73.47 184.49 73.66 183.68 74.03C182.87 74.4 182.22 74.92 181.72 75.57C181.22 76.22 180.82 77.01 180.51 77.95C180.2 78.88 179.92 79.91 179.67 81.03C179.54 81.59 179.27 81.95 178.83 82.1C178.39 82.26 177.71 82.33 176.78 82.33C170.44 82.33 167.28 79.94 167.28 75.15C167.28 73.23 167.73 71.39 168.63 69.65C169.53 67.91 170.87 66.4 172.64 65.13C174.41 63.86 176.63 62.85 179.3 62.1C181.97 61.35 185.08 60.98 188.62 60.98C195.52 60.98 200.52 62.41 203.62 65.27C206.73 68.13 208.28 72.17 208.28 77.38C208.28 78.06 208.2 79.29 208.05 81.06C207.89 82.83 207.71 84.69 207.49 86.65C207.27 88.61 207.09 90.46 206.93 92.19C206.77 93.93 206.7 95.14 206.7 95.82C206.7 97.37 206.98 98.48 207.54 99.13C208.1 99.78 208.74 100.23 209.45 100.48C210.16 100.73 210.8 100.92 211.36 101.04C211.92 101.17 212.2 101.48 212.2 101.97C212.2 103.34 212.01 104.73 211.64 106.16C211.27 107.59 210.66 108.89 209.82 110.07C208.98 111.25 207.83 112.21 206.37 112.96C204.91 113.71 203.12 114.08 201.01 114.08C198.03 114.08 195.79 113.36 194.3 111.94C192.81 110.51 191.81 108.52 191.32 105.98C189.83 108.16 187.89 110.05 185.5 111.66C183.11 113.28 179.99 114.08 176.13 114.08C174.27 114.08 172.51 113.86 170.86 113.43C169.21 113 167.79 112.28 166.57 111.29C165.36 110.3 164.39 109.01 163.68 107.42C162.96 105.84 162.61 103.93 162.61 101.69L162.62 101.7ZM191.6 91.08C189.98 91.08 188.4 91.21 186.85 91.45C185.3 91.7 183.91 92.09 182.7 92.62C181.49 93.15 180.51 93.85 179.76 94.72C179.01 95.59 178.64 96.65 178.64 97.89C178.64 99.32 179.09 100.31 179.99 100.87C180.89 101.43 181.87 101.71 182.93 101.71C183.92 101.71 184.92 101.49 185.91 101.06C186.9 100.63 187.79 99.96 188.57 99.06C189.35 98.16 190.01 97.06 190.57 95.75C191.13 94.45 191.47 92.89 191.6 91.09V91.08Z" fill="#DC2E27"></path>
<path d="M262.14 105.61C262.14 105.92 261.99 106.54 261.67 107.47C261.36 108.4 260.86 109.37 260.18 110.36C259.5 111.35 258.64 112.22 257.62 112.97C256.6 113.72 255.37 114.09 253.94 114.09C252.26 114.09 250.6 113.53 248.96 112.41C247.31 111.29 245.68 109.77 244.07 107.84C242.45 105.91 240.82 103.63 239.18 100.99C237.53 98.35 235.87 95.48 234.19 92.37C233.94 95.66 233.69 98.89 233.44 102.06C233.19 105.23 232.94 108.3 232.69 111.29C232.63 112.04 232.47 112.53 232.22 112.78C231.97 113.03 231.44 113.15 230.64 113.15H227.28C225.35 113.15 223.77 112.95 222.53 112.54C221.29 112.14 220.32 111.56 219.64 110.82C218.95 110.07 218.47 109.13 218.2 107.98C217.92 106.83 217.78 105.51 217.78 104.02C217.78 103.27 217.81 102.5 217.87 101.69C217.93 100.88 218.02 99.73 218.15 98.24C218.27 96.75 218.44 94.79 218.66 92.37C218.88 89.95 219.14 86.75 219.45 82.77C219.76 78.8 220.12 73.9 220.52 68.09C220.92 62.28 221.37 55.22 221.87 46.89C221.93 45.52 222.09 44.72 222.34 44.47C222.53 44.28 223.02 44.19 223.83 44.19H227.46C229.38 44.19 230.97 44.41 232.21 44.84C233.45 45.28 234.45 45.87 235.19 46.61C235.94 47.36 236.45 48.23 236.73 49.22C237.01 50.21 237.15 51.24 237.15 52.3C237.15 52.92 237.1 53.96 237.01 55.42C236.92 56.88 236.81 58.65 236.68 60.73C236.55 62.81 236.38 65.16 236.17 67.77C235.95 70.38 235.75 73.11 235.56 75.97L250.47 62.36C251.03 61.86 251.54 61.52 252.01 61.33C252.48 61.14 252.83 61.05 253.08 61.05C253.76 61.05 254.51 61.49 255.32 62.35C256.13 63.22 256.89 64.23 257.6 65.38C258.31 66.53 258.9 67.71 259.37 68.92C259.84 70.13 260.07 71.11 260.07 71.86C260.07 73.66 258.63 75.56 255.74 77.54C252.85 79.53 248.49 81.77 242.65 84.25C245.26 87.17 247.74 89.84 250.1 92.26C252.46 94.68 254.53 96.83 256.3 98.69C258.07 100.55 259.48 102.08 260.54 103.26C261.6 104.44 262.12 105.22 262.12 105.59L262.14 105.61Z" fill="#DC2E27"></path>
<path d="M297.18 102.17C295.63 104.97 293.73 107.03 291.5 108.37C289.26 109.71 286.47 110.37 283.11 110.37C280.56 110.37 278.23 109.97 276.12 109.16C274.01 108.35 272.21 107.08 270.72 105.34C269.23 103.6 268.06 101.41 267.23 98.77C266.39 96.13 265.97 92.98 265.97 89.31C265.97 86.33 266.28 83.18 266.9 79.85C267.52 76.53 268.65 73.47 270.3 70.67C271.95 67.87 274.2 65.56 277.06 63.73C279.92 61.9 283.58 60.98 288.06 60.98C289.92 60.98 291.52 61.18 292.86 61.59C294.2 61.99 295.34 62.54 296.31 63.22C297.27 63.9 298.05 64.71 298.64 65.64C299.23 66.57 299.68 67.57 299.99 68.62C299.99 68.68 300 68.45 300.04 67.92C300.07 67.39 300.12 66.79 300.18 66.1C300.24 65.42 300.29 64.75 300.32 64.1C300.35 63.45 300.37 63.03 300.37 62.84C300.43 62.22 300.84 61.91 301.58 61.91H305.87C309.1 61.91 311.45 62.58 312.91 63.91C314.37 65.25 315.1 67.78 315.1 71.5C315.1 72 315.07 73.13 315.01 74.9C314.95 76.67 314.84 78.8 314.68 81.28C314.52 83.77 314.32 86.51 314.07 89.53C313.82 92.54 313.54 95.57 313.23 98.62C312.92 101.66 312.58 104.58 312.2 107.38C311.83 110.18 311.42 112.63 310.99 114.74C310.55 116.85 309.81 118.9 308.75 120.89C307.69 122.88 306.2 124.65 304.28 126.2C302.35 127.75 299.88 129 296.87 129.93C293.86 130.86 290.17 131.33 285.83 131.33C282.54 131.33 279.66 131.02 277.21 130.4C274.76 129.78 272.72 128.96 271.11 127.93C269.49 126.9 268.27 125.74 267.43 124.44C266.59 123.14 266.17 121.83 266.17 120.53C266.17 119.35 266.42 118.32 266.92 117.45C267.42 116.58 268.07 115.87 268.88 115.31C269.69 114.75 270.57 114.33 271.54 114.05C272.5 113.77 273.42 113.63 274.29 113.63C275.35 113.63 276.12 113.94 276.62 114.56C277.12 115.18 277.68 115.88 278.3 116.66C278.92 117.44 279.79 118.14 280.91 118.76C282.03 119.38 283.77 119.69 286.13 119.69C290.23 119.69 293.1 118.18 294.75 115.17C296.4 112.16 297.22 107.82 297.22 102.17H297.18ZM289.35 97.97C291.59 97.97 293.34 97.44 294.61 96.39C295.88 95.33 296.86 94.06 297.55 92.57C298.23 91.08 298.67 89.53 298.85 87.91C299.04 86.3 299.13 84.9 299.13 83.72C299.13 79.99 298.55 77.34 297.41 75.75C296.26 74.17 294.54 73.37 292.24 73.37C289.94 73.37 288.14 73.99 286.84 75.23C285.54 76.47 284.56 77.95 283.9 79.66C283.25 81.37 282.83 83.08 282.64 84.79C282.45 86.5 282.36 87.82 282.36 88.75C282.36 91.86 282.89 94.17 283.94 95.69C285 97.21 286.8 97.97 289.34 97.97H289.35Z" fill="#DC2E27"></path>
<path d="M341.07 69.83C341.07 71.13 340.96 72.97 340.74 75.33C340.52 77.69 340.3 80.15 340.09 82.69C339.87 85.24 339.65 87.63 339.44 89.86C339.22 92.1 339.11 93.71 339.11 94.71C339.11 96.89 339.65 98.58 340.74 99.79C341.83 101 343.33 101.61 345.26 101.61C346.94 101.61 348.35 100.94 349.5 99.61C350.65 98.27 351.58 96.53 352.3 94.39C353.01 92.25 353.59 89.81 354.02 87.08C354.45 84.35 354.78 81.58 355 78.79C355.22 75.99 355.4 73.28 355.56 70.64C355.71 68 355.89 65.72 356.07 63.79C356.13 63.29 356.32 62.86 356.63 62.49C356.94 62.12 357.44 61.93 358.12 61.93H361.47C363.39 61.93 364.96 62.13 366.18 62.54C367.39 62.94 368.35 63.52 369.07 64.26C369.78 65.01 370.28 65.92 370.56 67.01C370.84 68.1 370.98 69.36 370.98 70.78C370.98 71.71 370.93 73.03 370.84 74.74C370.75 76.45 370.57 78.81 370.33 81.82C370.08 84.83 369.79 88.65 369.44 93.28C369.1 97.91 368.68 103.64 368.18 110.47C368.05 111.77 367.92 112.55 367.76 112.8C367.6 113.05 367.09 113.17 366.22 113.17H362.59C360.73 113.17 359.19 112.95 357.98 112.52C356.77 112.09 355.79 111.53 355.04 110.84C354.29 110.16 353.77 109.35 353.46 108.42C353.15 107.49 352.96 106.53 352.9 105.53C351.97 107.15 350.93 108.51 349.78 109.63C348.63 110.75 347.43 111.63 346.19 112.29C344.95 112.94 343.67 113.41 342.37 113.69C341.07 113.97 339.79 114.11 338.55 114.11C336.19 114.11 334.08 113.72 332.21 112.94C330.35 112.16 328.78 111.12 327.5 109.82C326.23 108.52 325.25 106.96 324.56 105.16C323.88 103.36 323.53 101.43 323.53 99.38C323.53 98.57 323.58 97.25 323.67 95.42C323.76 93.59 323.89 91.52 324.04 89.22C324.19 86.92 324.37 84.48 324.55 81.9C324.74 79.32 324.91 76.88 325.06 74.59C325.21 72.29 325.37 70.27 325.53 68.53C325.68 66.79 325.79 65.55 325.86 64.8C325.98 63.68 326.23 62.92 326.61 62.52C326.98 62.12 327.6 61.91 328.47 61.91H331.45C333.38 61.91 334.96 62.1 336.2 62.47C337.44 62.84 338.42 63.37 339.14 64.05C339.85 64.73 340.35 65.56 340.63 66.52C340.91 67.48 341.05 68.59 341.05 69.83H341.07ZM331.38 51.29C331.38 49.05 332.13 47.28 333.62 45.98C335.11 44.68 337.13 44.02 339.68 44.02C341.92 44.02 343.55 44.52 344.57 45.51C345.6 46.5 346.11 47.81 346.11 49.42C346.11 51.47 345.39 53.19 343.97 54.59C342.54 55.99 340.46 56.69 337.73 56.69C333.5 56.69 331.39 54.89 331.39 51.29H331.38ZM352.63 51.29C352.63 49.05 353.38 47.28 354.87 45.98C356.36 44.68 358.38 44.02 360.93 44.02C363.17 44.02 364.8 44.52 365.82 45.51C366.85 46.5 367.36 47.81 367.36 49.42C367.36 51.47 366.65 53.19 365.22 54.59C363.79 55.99 361.71 56.69 358.98 56.69C354.75 56.69 352.64 54.89 352.64 51.29H352.63Z" fill="#DC2E27"></path>
<path d="M389.99 114C386.14 114 383.37 112.97 381.7 110.92C380.02 108.87 379.18 105.48 379.18 100.76C379.18 100.01 379.23 99.08 379.32 97.96C379.41 96.84 379.54 95.4 379.69 93.63C379.84 91.86 380.05 89.67 380.3 87.06C380.55 84.45 380.81 81.28 381.09 77.55C381.37 73.82 381.68 69.44 382.02 64.41C382.36 59.38 382.72 53.54 383.09 46.89C383.15 45.52 383.31 44.72 383.56 44.47C383.75 44.28 384.24 44.19 385.05 44.19H388.68C390.54 44.19 392.1 44.41 393.34 44.84C394.58 45.28 395.58 45.87 396.32 46.61C397.07 47.36 397.59 48.21 397.9 49.17C398.21 50.13 398.37 51.14 398.37 52.2C398.37 53.44 398.29 55.23 398.14 57.56C397.98 59.89 397.78 62.51 397.53 65.43C397.28 68.35 397.03 71.39 396.78 74.56C396.53 77.73 396.28 80.76 396.03 83.65C395.78 86.54 395.58 89.13 395.42 91.43C395.26 93.73 395.19 95.47 395.19 96.65C395.19 98.27 395.48 99.41 396.08 100.1C396.67 100.78 397.31 101.26 397.99 101.54C398.67 101.82 399.31 102.01 399.9 102.1C400.49 102.19 400.79 102.4 400.79 102.71C400.79 104.08 400.63 105.43 400.32 106.76C400.01 108.1 399.45 109.31 398.64 110.39C397.83 111.48 396.73 112.35 395.33 113C393.93 113.65 392.15 113.98 389.97 113.98L389.99 114Z" fill="#DC2E27"></path>
<path d="M353.34 123.64C355.39 123.64 356.94 124.27 357.98 125.54C359.02 126.81 359.54 128.81 359.54 131.54C359.54 133.24 359.34 134.76 358.95 136.1C358.56 137.43 358.01 138.56 357.31 139.49C356.61 140.42 355.79 141.12 354.85 141.6C353.91 142.08 352.89 142.32 351.8 142.32C350.64 142.32 349.73 142.07 349.08 141.57C348.42 141.07 347.91 140.36 347.54 139.44C347.47 140.23 347.42 140.83 347.38 141.24C347.34 141.66 347.3 141.99 347.28 142.24C347.26 142.49 347.24 142.72 347.23 142.91C347.22 143.11 347.2 143.37 347.16 143.7C347.13 144.03 347.09 144.48 347.05 145.04C347.01 145.61 346.94 146.39 346.85 147.4C346.83 147.66 346.77 147.84 346.69 147.92C346.6 148.01 346.42 148.05 346.13 148.05H344.95C344.27 148.05 343.72 147.98 343.29 147.84C342.86 147.7 342.52 147.5 342.27 147.23C342.02 146.97 341.84 146.64 341.75 146.26C341.65 145.88 341.6 145.43 341.6 144.93C341.6 144.71 341.63 144.12 341.7 143.16C341.77 142.2 341.85 141.05 341.95 139.7C342.05 138.36 342.16 136.91 342.28 135.36C342.4 133.81 342.51 132.33 342.62 130.92C342.73 129.51 342.82 128.26 342.9 127.17C342.98 126.08 343.04 125.32 343.08 124.91C343.1 124.43 343.16 124.15 343.24 124.06C343.31 123.99 343.48 123.96 343.76 123.96H345.04C346.22 123.96 347.08 124.21 347.61 124.7C348.15 125.19 348.41 125.78 348.41 126.45C348.91 125.45 349.56 124.72 350.36 124.29C351.16 123.85 352.15 123.63 353.33 123.63L353.34 123.64ZM350.95 128C349.84 128 349.02 128.48 348.49 129.44C347.97 130.4 347.7 131.71 347.7 133.37C347.7 133.94 347.74 134.5 347.81 135.04C347.89 135.59 348.02 136.08 348.22 136.51C348.42 136.95 348.68 137.3 349.02 137.56C349.36 137.82 349.79 137.95 350.31 137.95C351.25 137.95 352.04 137.49 352.67 136.57C353.3 135.65 353.62 134.21 353.62 132.24C353.62 131.69 353.58 131.16 353.51 130.65C353.43 130.14 353.3 129.68 353.1 129.29C352.9 128.9 352.63 128.58 352.28 128.34C351.93 128.1 351.48 127.98 350.94 127.98L350.95 128Z" fill="#DC2E27"></path>
<path d="M365.11 142C364.43 142 363.88 141.93 363.45 141.79C363.02 141.65 362.68 141.45 362.43 141.18C362.18 140.92 362 140.6 361.91 140.21C361.81 139.83 361.76 139.39 361.76 138.88C361.76 138.55 361.78 138.09 361.81 137.49C361.84 136.89 361.9 136.06 361.99 135C362.08 133.94 362.18 132.6 362.3 130.97C362.42 129.34 362.57 127.33 362.74 124.92C362.76 124.44 362.82 124.16 362.9 124.07C362.97 124 363.14 123.97 363.42 123.97H364.7C365.38 123.97 365.93 124.04 366.36 124.17C366.79 124.3 367.12 124.5 367.38 124.76C367.63 125.02 367.81 125.34 367.9 125.71C368 126.08 368.05 126.5 368.05 126.96C368.05 127.29 368.03 127.78 367.98 128.43C367.94 129.09 367.88 129.98 367.8 131.1C367.72 132.23 367.62 133.62 367.49 135.3C367.36 136.97 367.2 138.99 367 141.35C366.98 141.61 366.92 141.79 366.84 141.87C366.76 141.95 366.57 142 366.28 142H365.1H365.11ZM362.78 120.1C362.78 119.23 363.1 118.54 363.73 118.03C364.36 117.53 365.22 117.28 366.29 117.28C367.23 117.28 367.91 117.47 368.34 117.85C368.77 118.23 368.98 118.74 368.98 119.37C368.98 120.18 368.68 120.85 368.08 121.39C367.48 121.93 366.6 122.19 365.44 122.19C363.67 122.19 362.78 121.49 362.78 120.09V120.1Z" fill="#DC2E27"></path>
<path d="M374.42 142.3C373.06 142.3 372.09 141.94 371.5 141.22C370.91 140.5 370.62 139.31 370.62 137.65C370.62 137.39 370.64 137.06 370.67 136.67C370.7 136.28 370.75 135.77 370.8 135.15C370.85 134.53 370.93 133.76 371.01 132.84C371.1 131.92 371.19 130.81 371.29 129.5C371.39 128.19 371.5 126.65 371.62 124.88C371.74 123.11 371.87 121.06 372 118.72C372.02 118.24 372.08 117.96 372.16 117.87C372.23 117.8 372.4 117.77 372.68 117.77H373.96C374.62 117.77 375.16 117.85 375.6 118C376.04 118.15 376.39 118.36 376.65 118.62C376.91 118.88 377.1 119.18 377.21 119.52C377.32 119.86 377.37 120.21 377.37 120.59C377.37 121.03 377.34 121.66 377.29 122.47C377.24 123.29 377.16 124.21 377.08 125.24C376.99 126.27 376.9 127.34 376.82 128.45C376.73 129.56 376.64 130.63 376.56 131.65C376.47 132.67 376.4 133.58 376.35 134.39C376.3 135.2 376.27 135.81 376.27 136.23C376.27 136.8 376.37 137.2 376.58 137.44C376.79 137.68 377.01 137.85 377.25 137.95C377.49 138.05 377.71 138.11 377.92 138.15C378.13 138.18 378.23 138.25 378.23 138.36C378.23 138.84 378.18 139.32 378.07 139.79C377.96 140.26 377.76 140.69 377.48 141.07C377.2 141.45 376.81 141.76 376.32 141.99C375.83 142.22 375.2 142.33 374.43 142.33L374.42 142.3Z" fill="#DC2E27"></path>
<path d="M383.57 142C382.89 142 382.34 141.93 381.91 141.79C381.48 141.65 381.14 141.45 380.89 141.18C380.64 140.92 380.46 140.6 380.37 140.21C380.27 139.83 380.22 139.39 380.22 138.88C380.22 138.55 380.24 138.09 380.27 137.49C380.3 136.89 380.36 136.06 380.45 135C380.54 133.94 380.64 132.6 380.76 130.97C380.88 129.34 381.03 127.33 381.2 124.92C381.22 124.44 381.28 124.16 381.36 124.07C381.43 124 381.6 123.97 381.88 123.97H383.16C383.84 123.97 384.39 124.04 384.82 124.17C385.25 124.3 385.58 124.5 385.84 124.76C386.09 125.02 386.27 125.34 386.36 125.71C386.46 126.08 386.51 126.5 386.51 126.96C386.51 127.29 386.49 127.78 386.44 128.43C386.4 129.09 386.34 129.98 386.26 131.1C386.18 132.23 386.08 133.62 385.95 135.3C385.82 136.97 385.66 138.99 385.46 141.35C385.44 141.61 385.38 141.79 385.3 141.87C385.22 141.95 385.03 142 384.74 142H383.56H383.57ZM381.24 120.1C381.24 119.23 381.56 118.54 382.19 118.03C382.82 117.53 383.68 117.28 384.75 117.28C385.69 117.28 386.37 117.47 386.8 117.85C387.23 118.23 387.44 118.74 387.44 119.37C387.44 120.18 387.14 120.85 386.54 121.39C385.94 121.93 385.06 122.19 383.9 122.19C382.13 122.19 381.24 121.49 381.24 120.09V120.1Z" fill="#DC2E27"></path>
<path d="M397.37 137.97C398 137.97 398.56 137.88 399.03 137.71C399.5 137.54 399.91 137.34 400.26 137.12C400.61 136.9 400.9 136.7 401.14 136.53C401.38 136.36 401.6 136.27 401.8 136.27C402.3 136.27 402.55 136.6 402.55 137.25C402.55 137.4 402.52 137.62 402.45 137.89C402.38 138.16 402.3 138.45 402.19 138.74C402.08 139.03 401.97 139.31 401.85 139.58C401.73 139.84 401.62 140.04 401.51 140.17C401.42 140.28 401.26 140.44 401.02 140.65C400.78 140.86 400.48 141.07 400.12 141.27C399.76 141.48 399.33 141.68 398.83 141.88C398.33 142.08 397.77 142.21 397.16 142.27L397.03 143.32C398.01 143.32 398.78 143.48 399.34 143.8C399.9 144.12 400.18 144.67 400.18 145.46C400.18 146.38 399.81 147.13 399.07 147.71C398.33 148.29 397.37 148.58 396.19 148.58C395.95 148.58 395.66 148.56 395.32 148.53C394.98 148.5 394.66 148.42 394.37 148.3C394.08 148.18 393.82 148.02 393.62 147.81C393.41 147.6 393.31 147.32 393.31 146.97C393.31 146.69 393.37 146.39 393.49 146.07C393.61 145.75 393.76 145.59 393.93 145.59C394.02 145.59 394.11 145.63 394.21 145.72C394.31 145.81 394.43 145.91 394.57 146.03C394.71 146.15 394.89 146.25 395.09 146.34C395.3 146.43 395.54 146.47 395.83 146.47C396.14 146.47 396.4 146.42 396.62 146.31C396.84 146.2 396.95 146.03 396.95 145.79C396.95 145.53 396.82 145.32 396.57 145.17C396.32 145.02 396.03 144.89 395.72 144.79C395.4 144.69 395.12 144.6 394.87 144.53C394.62 144.45 394.49 144.38 394.49 144.32C394.49 144.1 394.53 143.8 394.62 143.4C394.71 143.01 394.81 142.62 394.91 142.25C394.14 142.14 393.4 141.92 392.66 141.59C391.93 141.26 391.27 140.78 390.69 140.15C390.11 139.52 389.64 138.71 389.28 137.72C388.92 136.74 388.74 135.55 388.74 134.15C388.74 133.58 388.78 132.93 388.85 132.2C388.93 131.47 389.08 130.71 389.33 129.94C389.57 129.16 389.89 128.4 390.3 127.65C390.7 126.9 391.24 126.22 391.92 125.63C392.6 125.04 393.41 124.56 394.36 124.2C395.31 123.84 396.44 123.66 397.75 123.66C398.82 123.66 399.74 123.79 400.52 124.04C401.3 124.29 401.93 124.63 402.44 125.06C402.94 125.49 403.32 125.98 403.57 126.55C403.82 127.12 403.95 127.73 403.95 128.39C403.95 129.57 403.58 130.44 402.84 131C402.1 131.56 401.05 131.84 399.69 131.84C399.36 131.84 399.14 131.81 399.02 131.76C398.9 131.71 398.84 131.58 398.84 131.38C398.84 130.86 398.83 130.39 398.81 129.97C398.79 129.56 398.73 129.21 398.63 128.92C398.53 128.64 398.38 128.42 398.19 128.26C397.99 128.11 397.71 128.03 397.34 128.03C396.66 128.03 396.12 128.25 395.72 128.69C395.32 129.13 395.01 129.66 394.8 130.28C394.59 130.9 394.46 131.54 394.41 132.2C394.36 132.86 394.33 133.4 394.33 133.84C394.33 135.39 394.58 136.47 395.07 137.09C395.56 137.7 396.34 138.01 397.41 138.01L397.37 137.97Z" fill="#DC2E27"></path>
<path d="M129.06 0.570007H13.3C6.03745 0.570007 0.149994 6.45746 0.149994 13.72V162.03C0.149994 169.293 6.03745 175.18 13.3 175.18H129.06C136.323 175.18 142.21 169.293 142.21 162.03V13.72C142.21 6.45746 136.323 0.570007 129.06 0.570007Z" fill="#DC2E27"></path>
<path d="M111.51 79.74C110.83 73.85 108.88 67.67 106.07 61.69C106.85 61.41 107.82 61.21 108.81 61.15C113.53 60.87 118.15 61.37 122.38 63.66C125.13 65.15 125.09 66.36 122.89 68.45C118.95 72.2 115.16 76.11 111.51 79.74Z" fill="white"></path>
<path d="M99.97 50.64C100.82 51.42 102.21 50.94 102.42 49.81C102.71 48.22 102.75 46.94 102.73 44.82C102.69 41.7 99.41 28.86 83.61 29.06C82.59 25.37 79.92 14.47 66.85 14.64C62.75 14.69 57.72 17.49 59.35 23.51C55.81 21.6 52.65 18.52 47.97 18.58C44.65 18.62 36.49 20.87 37 30.81C34.83 29.28 30.71 27.18 27.59 27.22C24.47 27.26 18.24 28.51 18.36 37.87C18.41 41.76 25.74 48.11 35.21 50.08C37.81 50.62 40.54 50.07 42.78 48.65C52.72 42.36 60.25 40 72.49 39.85C84.09 39.7 92.7 44 99.97 50.64Z" fill="white"></path>
<path d="M81.42 73.42C84.3084 73.42 86.65 71.0784 86.65 68.19C86.65 65.3015 84.3084 62.96 81.42 62.96C78.5315 62.96 76.19 65.3015 76.19 68.19C76.19 71.0784 78.5315 73.42 81.42 73.42Z" fill="white"></path>
<path d="M17.56 81.44L20.4 77.06C21.38 75.59 22.37 74.11 23.41 72.66C25.5 69.76 27.74 66.92 30.2 64.24C31.43 62.9 32.7 61.59 34.03 60.33C35.36 59.07 36.75 57.87 38.18 56.71C41.05 54.4 44.14 52.3 47.44 50.53C50.73 48.76 54.22 47.29 57.83 46.21C61.45 45.14 65.18 44.45 68.93 44.13C69.87 44.05 70.81 44 71.75 43.96L73.16 43.93C73.63 43.93 74.13 43.93 74.61 43.93C76.55 43.98 78.51 44.17 80.47 44.52C84.38 45.21 88.28 46.64 91.73 48.83C95.2 51 98.15 53.91 100.47 57.14C102.8 60.38 104.53 63.91 105.81 67.53C107.09 71.15 107.92 74.87 108.39 78.63C108.62 80.51 108.77 82.4 108.8 84.32C108.83 86.25 108.76 88.09 108.63 89.94C108.37 93.62 107.89 97.23 107.24 100.81C106.59 104.39 105.78 107.93 104.77 111.42C102.77 118.4 100.09 125.23 96.53 131.69C92.97 138.13 88.44 144.21 82.7 149.18C81.26 150.42 79.75 151.58 78.18 152.66C76.6 153.73 74.95 154.71 73.24 155.58C71.54 156.46 69.77 157.21 67.96 157.86C67.06 158.2 66.14 158.47 65.23 158.75C64.3 159 63.38 159.26 62.45 159.45C61.52 159.67 60.58 159.82 59.64 159.99C58.7 160.11 57.75 160.27 56.81 160.34C55.86 160.44 54.92 160.49 53.97 160.54C53.5 160.57 53.03 160.56 52.55 160.57C52.08 160.57 51.62 160.59 51.09 160.57C49.04 160.52 46.91 160.24 44.79 159.53C42.68 158.84 40.61 157.68 38.9 156.14C37.19 154.6 35.85 152.73 34.9 150.8C33.95 148.87 33.32 146.88 32.91 144.93C32.08 141.01 32.04 137.18 32.28 133.46C32.41 131.6 32.61 129.76 32.89 127.94C33.17 126.12 33.53 124.33 33.93 122.55C34.34 120.77 34.8 119.01 35.32 117.25C35.84 115.5 36.43 113.74 37.11 112.03C38.46 108.62 40.04 105.32 41.87 102.14C43.7 98.97 45.78 95.91 48.21 93.09C49.42 91.68 50.72 90.33 52.12 89.07C53.53 87.82 55.03 86.66 56.63 85.62C59.83 83.56 63.48 82.05 67.29 81.44C69.19 81.14 71.12 81.02 73.02 81.15C74.92 81.27 76.79 81.59 78.59 82.06C82.21 83 85.57 84.54 88.67 86.39C89.44 86.85 89.7 87.86 89.24 88.63C88.8 89.36 87.89 89.63 87.13 89.27H87.11C84.07 87.79 80.91 86.63 77.7 86.05C74.49 85.46 71.26 85.47 68.19 86.17C65.12 86.85 62.25 88.25 59.69 90.13C57.13 92.02 54.86 94.35 52.85 96.92C48.84 102.09 45.84 108.19 43.68 114.47C41.57 120.69 40.26 127.44 39.88 133.93C39.72 137.18 39.85 140.4 40.48 143.32C41.11 146.24 42.31 148.78 44.1 150.34C44.99 151.13 46.03 151.73 47.25 152.11C48.45 152.51 49.82 152.7 51.26 152.73C51.6 152.74 52.02 152.73 52.42 152.72C52.82 152.71 53.22 152.71 53.62 152.68C54.42 152.63 55.22 152.59 56.01 152.49C56.81 152.42 57.59 152.28 58.38 152.18C59.16 152.03 59.94 151.9 60.71 151.71C66.88 150.3 72.58 147.29 77.36 143.04C82.15 138.81 86.08 133.48 89.2 127.67C92.33 121.85 94.73 115.56 96.5 109.1C98.27 102.64 99.5 95.97 99.94 89.37C100.05 87.73 100.1 86.08 100.07 84.51C100.03 82.94 99.91 81.34 99.7 79.75C99.29 76.57 98.56 73.44 97.53 70.47C96.5 67.5 95.12 64.7 93.38 62.25C91.64 59.8 89.52 57.72 87.09 56.14C84.65 54.56 81.89 53.49 78.93 52.92C77.45 52.64 75.93 52.47 74.38 52.41L73.21 52.39H72C71.19 52.41 70.39 52.43 69.58 52.48C66.36 52.68 63.18 53.2 60.07 54.04C56.96 54.86 53.92 55.98 51 57.41C48.09 58.85 45.26 60.53 42.58 62.45C39.9 64.38 37.34 66.52 34.9 68.83C32.47 71.15 30.14 73.6 27.91 76.19C25.66 78.77 23.55 81.46 21.23 84.21C20.42 85.18 18.97 85.3 18.01 84.48C17.12 83.73 16.95 82.44 17.56 81.49L17.59 81.45L17.56 81.44Z" fill="white"></path>
</svg>
