<svg width="698" height="280" viewBox="0 0 698 280" fill="none" xmlns="http://www.w3.org/2000/svg">
<path d="M205.24 0.820007H22.39C10.32 0.820007 0.449951 10.68 0.449951 22.73V257.95C0.449951 270 10.32 279.86 22.39 279.86H205.23C217.3 279.86 227.17 270 227.17 257.95V22.73C227.17 10.68 217.3 0.820007 205.23 0.820007H205.24ZM44.2 43.69C49.21 43.63 55.84 46.97 59.32 49.42C58.49 33.54 71.61 29.95 76.94 29.89C84.46 29.8 89.54 34.72 95.22 37.76C92.59 28.14 100.69 23.67 107.27 23.59C128.27 23.33 132.56 40.72 134.21 46.62C159.6 46.3 164.87 66.8 164.94 71.78C164.98 75.15 164.91 77.21 164.45 79.74C164.23 80.96 163.13 81.7 162.02 81.67C158.5 77.7 154.48 74.27 150.2 71.6C144.34 67.91 137.47 65.3 130.34 64.04C127.04 63.45 123.62 63.12 120.18 63.03H119.36C118.98 63.02 118.61 63.01 118.24 63.01C118.04 63.01 117.85 63.01 117.62 63.01L115.26 63.07C113.45 63.15 111.95 63.24 110.53 63.36C104.12 63.91 97.79 65.08 91.71 66.87C85.73 68.65 79.81 71.09 74.11 74.14C71.12 75.73 68.1299 77.55 65.1799 79.56C62.3999 80.53 59.39 80.78 56.47 80.18C41.25 77.04 29.47 66.9 29.39 60.69C29.2 45.74 39.21 43.74 44.23 43.68L44.2 43.69ZM174.71 144.29C174.29 150.16 173.52 155.93 172.48 161.64C171.43 167.35 170.13 173 168.51 178.58C165.3 189.73 160.99 200.63 155.26 210.94C149.54 221.22 142.26 230.92 133.04 238.87C130.73 240.85 128.31 242.71 125.78 244.43C123.24 246.14 120.59 247.7 117.85 249.1C115.12 250.51 112.27 251.71 109.37 252.75C107.93 253.29 106.45 253.72 104.98 254.17C103.49 254.56 102.01 254.98 100.51 255.29C99.0099 255.65 97.5 255.88 95.99 256.15C94.47 256.35 92.96 256.59 91.44 256.71C89.92 256.88 88.4 256.95 86.88 257.03C86.12 257.07 85.36 257.06 84.6 257.08C83.84 257.09 83.1 257.11 82.25 257.08C78.96 257.01 75.53 256.55 72.13 255.43C68.74 254.34 65.41 252.48 62.67 250.02C59.91 247.57 57.76 244.58 56.24 241.5C54.71 238.42 53.6999 235.25 53.0399 232.12C51.6999 225.86 51.64 219.75 52.02 213.81C52.22 210.84 52.55 207.9 53 205C53.46 202.1 54.0299 199.23 54.6799 196.39C55.3399 193.55 56.07 190.73 56.91 187.93C57.74 185.14 58.6999 182.32 59.7899 179.6C61.9599 174.15 64.4999 168.89 67.4299 163.81C70.3699 158.74 73.72 153.87 77.61 149.35C79.55 147.09 81.65 144.94 83.89 142.93C86.15 140.93 88.57 139.07 91.14 137.42C96.29 134.13 102.14 131.71 108.27 130.74C111.32 130.26 114.42 130.07 117.47 130.27C120.52 130.46 123.52 130.97 126.42 131.72C132.23 133.22 137.63 135.68 142.61 138.63C143.85 139.37 144.26 140.97 143.52 142.21C142.82 143.38 141.35 143.8 140.14 143.23L140.11 143.21C135.22 140.87 130.15 139.01 125 138.08C119.85 137.14 114.64 137.16 109.72 138.27C104.79 139.36 100.18 141.59 96.06 144.58C91.95 147.59 88.3 151.32 85.07 155.43C78.63 163.69 73.8 173.43 70.33 183.44C66.95 193.38 64.8399 204.14 64.2299 214.51C63.9699 219.69 64.18 224.84 65.2 229.51C66.21 234.17 68.13 238.24 71.02 240.73C72.46 241.99 74.13 242.94 76.08 243.56C78.02 244.19 80.21 244.51 82.53 244.54C83.08 244.56 83.75 244.54 84.39 244.52C85.03 244.5 85.68 244.51 86.32 244.46C87.6 244.38 88.89 244.31 90.16 244.16C91.44 244.05 92.7 243.83 93.96 243.66C95.21 243.42 96.47 243.22 97.7 242.91C107.61 240.66 116.77 235.85 124.45 229.06C132.15 222.3 138.46 213.8 143.48 204.52C148.51 195.23 152.36 185.19 155.21 174.86C158.05 164.54 160.03 153.89 160.74 143.35C160.92 140.73 160.99 138.09 160.95 135.59C160.89 133.08 160.69 130.52 160.36 127.99C159.71 122.92 158.53 117.92 156.88 113.17C155.22 108.43 153.01 103.96 150.21 100.05C147.41 96.14 144.01 92.82 140.1 90.3C136.19 87.77 131.74 86.07 126.98 85.17C124.6 84.72 122.15 84.45 119.66 84.36L117.78 84.33H115.83C114.53 84.36 113.24 84.4 111.95 84.48C106.78 84.8 101.66 85.62 96.67 86.96C91.67 88.27 86.78 90.07 82.09 92.35C77.41 94.64 72.87 97.32 68.56 100.4C64.26 103.49 60.14 106.9 56.22 110.58C52.32 114.28 48.57 118.2 44.99 122.34C41.37 126.46 37.98 130.75 34.25 135.15C32.94 136.69 30.62 136.89 29.07 135.59C27.64 134.39 27.36 132.34 28.35 130.81L28.39 130.74L32.95 123.75C34.52 121.4 36.11 119.03 37.79 116.72C41.15 112.09 44.75 107.55 48.7 103.28C50.68 101.14 52.72 99.05 54.85 97.04C56.99 95.03 59.22 93.11 61.53 91.26C66.15 87.57 71.0999 84.21 76.3999 81.4C81.6899 78.58 87.29 76.23 93.09 74.51C98.9 72.81 104.9 71.7 110.92 71.19C112.43 71.06 113.94 70.98 115.45 70.91L117.71 70.85C118.47 70.84 119.26 70.85 120.04 70.86C123.16 70.94 126.31 71.24 129.45 71.8C135.73 72.9 141.99 75.18 147.54 78.68C153.11 82.15 157.86 86.79 161.58 91.95C165.32 97.12 168.11 102.76 170.16 108.54C172.22 114.32 173.54 120.26 174.3 126.26C174.67 129.26 174.9 132.28 174.96 135.34C175 138.42 174.9 141.36 174.69 144.31L174.71 144.29ZM121.78 108.99C121.78 104.38 125.55 100.63 130.19 100.63C134.83 100.63 138.6 104.37 138.6 108.99C138.6 113.61 134.84 117.34 130.19 117.34C125.54 117.34 121.78 113.6 121.78 108.99ZM197.23 110.06C190.82 115.96 184.63 122.11 178.68 127.83C177.72 118.41 174.73 108.51 170.36 98.88C171.6 98.65 173.18 98.15 174.78 98.08C182.37 97.74 189.79 98.64 196.53 102.39C200.92 104.84 200.82 106.76 197.24 110.06H197.23Z" fill="#ED1C24"></path>
<path fill-rule="evenodd" clip-rule="evenodd" d="M254.47 249.17V249.15H656.61C671.84 249.15 684.33 236.59 684.33 221.28V59.42C684.33 44.11 671.84 31.55 656.61 31.55H226.65V18.27H656.61C679.13 18.27 697.54 36.78 697.54 59.42V221.28C697.54 243.92 679.13 262.44 656.61 262.44H226.65V249.18H254.47V249.17Z" fill="#ED1C24"></path>
<path d="M264.63 162.45C264.63 153.64 268.68 146.74 276.78 141.75C284.88 136.76 296.83 134.07 312.64 133.68C312.74 132.61 312.81 131.7 312.86 130.96C312.91 130.23 312.94 129.32 312.94 128.24C312.94 125.11 312.34 122.61 311.14 120.75C309.94 118.89 307.44 117.96 303.64 117.96C301.54 117.96 299.84 118.25 298.54 118.84C297.24 119.43 296.19 120.23 295.39 121.26C294.59 122.29 293.94 123.54 293.44 125C292.94 126.47 292.49 128.08 292.09 129.85C291.89 130.73 291.44 131.3 290.74 131.54C290.04 131.78 288.94 131.91 287.44 131.91C277.24 131.91 272.14 128.14 272.14 120.61C272.14 117.58 272.86 114.69 274.32 111.95C275.77 109.21 277.92 106.84 280.77 104.83C283.62 102.83 287.2 101.23 291.5 100.06C295.8 98.88 300.8 98.3 306.51 98.3C317.61 98.3 325.66 100.55 330.67 105.05C335.67 109.55 338.17 115.92 338.17 124.14C338.17 125.22 338.04 127.15 337.8 129.94C337.55 132.73 337.25 135.66 336.9 138.75C336.55 141.83 336.25 144.75 336 147.49C335.75 150.23 335.62 152.14 335.62 153.22C335.62 155.67 336.07 157.41 336.97 158.43C337.87 159.46 338.9 160.17 340.05 160.56C341.2 160.95 342.23 161.25 343.13 161.44C344.03 161.64 344.48 162.13 344.48 162.91C344.48 165.06 344.18 167.27 343.58 169.52C342.98 171.77 342 173.83 340.65 175.69C339.3 177.55 337.45 179.07 335.1 180.24C332.75 181.42 329.87 182 326.47 182C321.67 182 318.07 180.87 315.67 178.62C313.27 176.37 311.67 173.24 310.87 169.22C308.47 172.65 305.34 175.63 301.49 178.18C297.64 180.72 292.61 182 286.41 182C283.41 182 280.58 181.66 277.93 180.97C275.28 180.29 272.98 179.16 271.03 177.59C269.08 176.02 267.53 173.99 266.38 171.49C265.23 168.99 264.65 165.99 264.65 162.46M424.88 168.62C424.88 169.11 424.63 170.09 424.13 171.56C423.63 173.03 422.83 174.55 421.73 176.11C420.63 177.68 419.26 179.05 417.61 180.22C415.96 181.4 413.98 181.98 411.68 181.98C408.98 181.98 406.3 181.1 403.65 179.34C401 177.58 398.37 175.18 395.77 172.15C393.17 169.12 390.54 165.52 387.89 161.36C385.24 157.2 382.56 152.68 379.86 147.78C379.46 152.97 379.06 158.06 378.66 163.05C378.26 168.04 377.86 172.89 377.46 177.59C377.36 178.76 377.11 179.55 376.71 179.94C376.31 180.33 375.46 180.53 374.16 180.53H368.76C365.66 180.53 363.11 180.21 361.11 179.58C359.11 178.94 357.56 178.04 356.46 176.86C355.36 175.68 354.58 174.19 354.14 172.38C353.69 170.57 353.46 168.49 353.46 166.14C353.46 164.97 353.51 163.74 353.61 162.47C353.71 161.2 353.86 159.39 354.06 157.04C354.26 154.69 354.53 151.61 354.89 147.79C355.24 143.97 355.66 138.93 356.17 132.67C356.67 126.41 357.24 118.7 357.89 109.54C358.54 100.39 359.27 89.26 360.07 76.14C360.17 73.99 360.42 72.72 360.82 72.32C361.12 72.03 361.92 71.88 363.22 71.88H369.07C372.17 71.88 374.72 72.22 376.72 72.91C378.72 73.6 380.32 74.53 381.52 75.7C382.72 76.88 383.55 78.25 384 79.81C384.45 81.38 384.67 82.99 384.67 84.65C384.67 85.63 384.59 87.27 384.44 89.57C384.29 91.87 384.12 94.66 383.92 97.94C383.72 101.22 383.44 104.91 383.09 109.03C382.74 113.14 382.42 117.45 382.12 121.95L406.13 100.51C407.03 99.73 407.86 99.19 408.61 98.89C409.36 98.6 409.93 98.45 410.33 98.45C411.43 98.45 412.63 99.14 413.93 100.51C415.23 101.88 416.46 103.47 417.61 105.28C418.76 107.09 419.71 108.95 420.46 110.86C421.21 112.77 421.58 114.31 421.58 115.48C421.58 118.32 419.26 121.31 414.61 124.44C409.96 127.57 402.93 131.1 393.53 135.01C397.73 139.61 401.73 143.82 405.53 147.64C409.33 151.46 412.66 154.83 415.51 157.77C418.36 160.71 420.63 163.11 422.34 164.96C424.04 166.82 424.89 168.04 424.89 168.63M481.29 163.19C478.79 167.59 475.74 170.85 472.14 172.95C468.54 175.06 464.04 176.11 458.64 176.11C454.54 176.11 450.79 175.47 447.39 174.2C443.99 172.93 441.09 170.92 438.69 168.18C436.29 165.44 434.42 161.99 433.06 157.83C431.71 153.67 431.03 148.7 431.03 142.93C431.03 138.23 431.53 133.27 432.53 128.03C433.53 122.79 435.35 117.97 438.01 113.57C440.66 109.17 444.29 105.52 448.89 102.63C453.49 99.74 459.39 98.3 466.6 98.3C469.6 98.3 472.17 98.62 474.33 99.25C476.48 99.89 478.33 100.74 479.88 101.82C481.43 102.9 482.68 104.17 483.63 105.64C484.58 107.11 485.31 108.68 485.81 110.34C485.81 110.44 485.83 110.07 485.89 109.24C485.94 108.41 486.01 107.45 486.11 106.38C486.21 105.31 486.28 104.25 486.33 103.22C486.38 102.19 486.4 101.53 486.4 101.24C486.5 100.26 487.15 99.77 488.35 99.77H495.25C500.45 99.77 504.23 100.82 506.58 102.93C508.93 105.04 510.11 109.02 510.11 114.9C510.11 115.68 510.06 117.47 509.96 120.26C509.86 123.05 509.68 126.4 509.43 130.32C509.18 134.23 508.85 138.57 508.45 143.31C508.05 148.06 507.6 152.83 507.1 157.63C506.6 162.43 506.05 167.03 505.45 171.43C504.85 175.83 504.2 179.7 503.5 183.03C502.8 186.36 501.6 189.59 499.9 192.72C498.2 195.85 495.8 198.64 492.7 201.09C489.6 203.53 485.62 205.49 480.77 206.96C475.91 208.43 469.99 209.16 462.99 209.16C457.69 209.16 453.06 208.67 449.11 207.69C445.16 206.71 441.88 205.42 439.28 203.8C436.68 202.18 434.7 200.35 433.35 198.29C432 196.23 431.32 194.18 431.32 192.12C431.32 190.26 431.72 188.64 432.52 187.27C433.32 185.9 434.37 184.77 435.67 183.89C436.97 183.01 438.39 182.35 439.95 181.91C441.5 181.47 442.98 181.25 444.38 181.25C446.08 181.25 447.33 181.74 448.13 182.72C448.93 183.7 449.83 184.8 450.83 186.02C451.83 187.24 453.23 188.34 455.03 189.32C456.83 190.3 459.63 190.79 463.43 190.79C470.03 190.79 474.66 188.41 477.31 183.67C479.96 178.92 481.29 172.1 481.29 163.19ZM468.69 156.58C472.29 156.58 475.12 155.75 477.17 154.08C479.22 152.42 480.79 150.41 481.9 148.06C483 145.71 483.7 143.27 484 140.72C484.3 138.18 484.45 135.97 484.45 134.11C484.45 128.24 483.52 124.05 481.67 121.56C479.82 119.06 477.04 117.82 473.34 117.82C469.64 117.82 466.74 118.8 464.64 120.76C462.54 122.72 460.96 125.04 459.91 127.73C458.86 130.42 458.18 133.12 457.88 135.81C457.58 138.5 457.43 140.58 457.43 142.05C457.43 146.95 458.28 150.59 459.98 152.99C461.68 155.39 464.58 156.59 468.68 156.59M551.96 112.24C551.96 114.3 551.78 117.18 551.44 120.9C551.09 124.62 550.74 128.49 550.39 132.5C550.04 136.51 549.69 140.28 549.34 143.8C548.99 147.32 548.82 149.87 548.82 151.43C548.82 154.86 549.69 157.52 551.45 159.43C553.2 161.34 555.63 162.29 558.73 162.29C561.43 162.29 563.7 161.24 565.56 159.13C567.41 157.03 568.91 154.28 570.06 150.91C571.21 147.53 572.13 143.69 572.84 139.39C573.54 135.08 574.06 130.73 574.41 126.32C574.76 121.91 575.06 117.63 575.31 113.47C575.56 109.31 575.83 105.72 576.13 102.68C576.23 101.9 576.53 101.21 577.03 100.62C577.53 100.03 578.33 99.74 579.43 99.74H584.83C587.93 99.74 590.46 100.06 592.41 100.7C594.36 101.34 595.91 102.24 597.06 103.41C598.21 104.59 599.01 106.03 599.46 107.74C599.91 109.45 600.14 111.43 600.14 113.69C600.14 115.16 600.07 117.24 599.91 119.93C599.76 122.62 599.48 126.34 599.09 131.09C598.69 135.84 598.21 141.86 597.66 149.15C597.11 156.44 596.43 165.47 595.63 176.24C595.43 178.3 595.21 179.52 594.96 179.91C594.71 180.3 593.88 180.5 592.48 180.5H586.63C583.63 180.5 581.15 180.16 579.2 179.47C577.25 178.79 575.67 177.91 574.47 176.83C573.27 175.76 572.42 174.48 571.92 173.01C571.42 171.54 571.12 170.03 571.02 168.46C569.52 171.01 567.84 173.16 565.99 174.92C564.14 176.68 562.21 178.08 560.21 179.11C558.21 180.14 556.16 180.87 554.06 181.31C551.96 181.75 549.91 181.97 547.91 181.97C544.11 181.97 540.71 181.36 537.71 180.13C534.71 178.91 532.18 177.27 530.13 175.21C528.08 173.15 526.5 170.71 525.4 167.87C524.3 165.03 523.75 162 523.75 158.77C523.75 157.5 523.82 155.42 523.97 152.53C524.12 149.64 524.32 146.39 524.57 142.77C524.82 139.15 525.1 135.31 525.4 131.24C525.7 127.18 525.97 123.34 526.22 119.71C526.47 116.09 526.72 112.91 526.97 110.17C527.22 107.43 527.4 105.47 527.5 104.3C527.7 102.54 528.1 101.34 528.7 100.7C529.3 100.06 530.3 99.74 531.7 99.74H536.5C539.6 99.74 542.15 100.03 544.15 100.62C546.15 101.21 547.73 102.04 548.88 103.12C550.03 104.2 550.83 105.5 551.28 107.01C551.73 108.53 551.95 110.27 551.95 112.22M536.36 83.03C536.36 79.51 537.56 76.72 539.96 74.66C542.36 72.6 545.61 71.57 549.71 71.57C553.31 71.57 555.94 72.36 557.59 73.92C559.24 75.49 560.06 77.54 560.06 80.09C560.06 83.32 558.91 86.04 556.61 88.24C554.31 90.44 550.96 91.54 546.56 91.54C539.76 91.54 536.36 88.7 536.36 83.02M570.57 83.03C570.57 79.51 571.77 76.72 574.17 74.66C576.57 72.6 579.82 71.57 583.92 71.57C587.52 71.57 590.15 72.36 591.8 73.92C593.45 75.49 594.28 77.54 594.28 80.09C594.28 83.32 593.13 86.04 590.83 88.24C588.53 90.44 585.18 91.54 580.78 91.54C573.98 91.54 570.58 88.7 570.58 83.02M630.74 181.83C624.54 181.83 620.09 180.22 617.39 176.98C614.69 173.75 613.34 168.42 613.34 160.98C613.34 159.8 613.42 158.34 613.56 156.58C613.71 154.82 613.91 152.54 614.16 149.75C614.41 146.96 614.73 143.51 615.13 139.4C615.53 135.29 615.96 130.3 616.41 124.42C616.86 118.55 617.36 111.65 617.91 103.72C618.46 95.79 619.03 86.59 619.63 76.12C619.73 73.97 619.98 72.7 620.38 72.3C620.68 72.01 621.48 71.86 622.78 71.86H628.63C631.63 71.86 634.13 72.2 636.13 72.89C638.13 73.58 639.73 74.5 640.93 75.68C642.13 76.86 642.98 78.2 643.48 79.72C643.98 81.24 644.23 82.83 644.23 84.49C644.23 86.45 644.1 89.26 643.86 92.93C643.61 96.6 643.28 100.74 642.88 105.34C642.48 109.94 642.08 114.74 641.68 119.73C641.28 124.72 640.88 129.49 640.48 134.04C640.08 138.59 639.75 142.68 639.5 146.3C639.25 149.92 639.12 152.66 639.12 154.52C639.12 157.07 639.59 158.88 640.55 159.95C641.5 161.03 642.52 161.78 643.62 162.22C644.72 162.66 645.75 162.95 646.7 163.1C647.65 163.25 648.13 163.57 648.13 164.05C648.13 166.2 647.88 168.33 647.38 170.43C646.88 172.54 645.98 174.45 644.68 176.16C643.38 177.87 641.6 179.24 639.35 180.27C637.1 181.3 634.22 181.81 630.72 181.81M311.29 145.72C308.69 145.72 306.14 145.92 303.64 146.31C301.14 146.7 298.91 147.32 296.96 148.14C295.01 148.97 293.43 150.08 292.23 151.45C291.03 152.82 290.43 154.48 290.43 156.44C290.43 158.69 291.15 160.26 292.61 161.14C294.06 162.02 295.63 162.46 297.33 162.46C298.93 162.46 300.53 162.12 302.13 161.43C303.73 160.75 305.15 159.69 306.41 158.27C307.66 156.85 308.74 155.11 309.64 153.06C310.54 151 311.09 148.56 311.29 145.72Z" fill="#ED1C24"></path>
<path d="M561.53 195.07C561.53 195.75 561.5 196.56 561.39 197.5C561.29 198.42 561.22 199.36 561.11 200.31C560.97 201.23 560.9 202.12 560.8 202.93C560.7 203.75 560.66 204.38 560.66 204.83C560.66 205.96 560.94 206.8 561.49 207.34C562.04 207.88 562.73 208.16 563.53 208.16C564.94 208.16 566.08 207.44 566.91 205.99C567.74 204.54 568.29 202.6 568.5 200.19L569.19 191.88C569.22 191.56 569.36 191.32 569.54 191.18C569.75 191.04 569.95 190.99 570.2 190.99H571.82C572.44 190.99 573.03 191.04 573.58 191.14C574.13 191.24 574.62 191.43 575.06 191.7C575.47 191.99 575.78 192.37 576.03 192.85C576.28 193.33 576.41 193.93 576.41 194.68C576.41 194.97 576.38 195.52 576.34 196.34C576.27 197.16 576.2 198.32 576.1 199.86C576 201.38 575.86 203.32 575.69 205.64C575.52 207.97 575.31 210.81 575.07 214.18C574.9 216.13 574.45 217.75 573.72 219.05C573 220.33 572.06 221.36 570.96 222.11C569.86 222.86 568.61 223.39 567.23 223.68C565.85 223.99 564.44 224.14 563.02 224.14C561.5 224.14 560.09 224 558.81 223.73C557.53 223.46 556.43 223.1 555.53 222.62C554.6 222.14 553.87 221.59 553.32 220.98C552.8 220.35 552.56 219.68 552.56 218.98C552.56 218.42 552.66 217.92 552.94 217.51C553.18 217.08 553.53 216.74 553.94 216.48C554.35 216.21 554.84 216.02 555.39 215.88C555.94 215.74 556.53 215.67 557.12 215.67C557.43 215.67 557.64 215.82 557.78 216.11C557.92 216.4 558.13 216.74 558.4 217.12C558.71 217.48 559.16 217.82 559.78 218.11C560.4 218.4 561.37 218.55 562.61 218.55C563.71 218.55 564.61 218.29 565.3 217.75C565.99 217.22 566.54 216.54 566.89 215.71C567.27 214.87 567.51 213.97 567.65 212.99C567.75 212.02 567.82 211.07 567.82 210.18C567.34 211 566.82 211.69 566.23 212.2C565.64 212.73 565.02 213.12 564.4 213.41C563.78 213.68 563.16 213.87 562.54 213.96C561.88 214.05 561.3 214.1 560.71 214.1C559.61 214.1 558.61 213.95 557.71 213.66C556.78 213.37 555.98 212.87 555.33 212.21C554.67 211.54 554.16 210.69 553.81 209.61C553.46 208.55 553.26 207.25 553.26 205.74C553.26 205.18 553.29 204.42 553.36 203.48C553.43 202.56 553.5 201.5 553.6 200.32C553.67 199.16 553.77 197.89 553.88 196.52C553.98 195.15 554.09 193.77 554.23 192.33C554.3 191.41 554.71 190.96 555.47 190.96H556.92C557.89 190.96 558.65 191.05 559.27 191.22C559.86 191.41 560.34 191.66 560.68 192.01C560.99 192.35 561.23 192.78 561.37 193.29C561.47 193.82 561.54 194.4 561.54 195.05L561.53 195.07Z" fill="#ED1C24"></path>
<path d="M590.28 215.9C588.97 215.9 587.66 215.73 586.35 215.4C585.04 215.07 583.9 214.51 582.87 213.71C581.83 212.92 580.97 211.85 580.32 210.51C579.66 209.18 579.32 207.5 579.32 205.48C579.32 204.74 579.39 203.86 579.53 202.81C579.63 201.77 579.88 200.71 580.22 199.59C580.57 198.5 581.05 197.42 581.63 196.32C582.25 195.24 583.04 194.27 584.05 193.41C585.05 192.54 586.22 191.85 587.64 191.31C589.05 190.78 590.75 190.52 592.68 190.52C594.23 190.52 595.54 190.69 596.61 191.05C597.71 191.41 598.58 191.89 599.23 192.49C599.89 193.11 600.37 193.81 600.68 194.61C600.96 195.41 601.13 196.27 601.13 197.19C601.13 198.56 600.85 199.7 600.3 200.66C599.71 201.6 599.02 202.4 598.13 203.04C597.24 203.68 596.27 204.19 595.2 204.53C594.13 204.89 593.06 205.16 591.99 205.37C590.95 205.56 589.99 205.68 589.09 205.71C588.23 205.76 587.54 205.78 587.05 205.78C587.05 206.34 587.15 206.91 587.29 207.46C587.46 208.01 587.7 208.49 588.05 208.9C588.36 209.33 588.81 209.67 589.36 209.93C589.88 210.2 590.53 210.34 591.33 210.34C592.13 210.34 592.71 210.2 593.16 209.96C593.57 209.7 593.92 209.41 594.2 209.1C594.48 208.79 594.72 208.5 594.89 208.26C595.1 208 595.37 207.88 595.68 207.88C595.82 207.88 596.09 207.91 596.47 207.98C596.85 208.05 597.23 208.22 597.61 208.44C597.99 208.68 598.33 209 598.65 209.43C598.96 209.84 599.1 210.37 599.1 211.02C599.1 211.89 598.82 212.63 598.31 213.24C597.76 213.87 597.07 214.37 596.21 214.76C595.35 215.15 594.42 215.43 593.35 215.6C592.31 215.79 591.31 215.87 590.31 215.87L590.28 215.9ZM591.14 196.45C590.48 196.45 589.9 196.64 589.45 197C588.97 197.38 588.59 197.84 588.28 198.4C587.97 198.96 587.73 199.6 587.56 200.26C587.39 200.94 587.28 201.61 587.18 202.23C589.04 202.2 590.56 201.89 591.7 201.29C592.84 200.71 593.43 199.85 593.43 198.76C593.43 198.16 593.26 197.63 592.88 197.15C592.5 196.69 591.91 196.45 591.15 196.45H591.14Z" fill="#ED1C24"></path>
<path d="M611.08 207.45C611.01 208.8 610.91 210.1 610.77 211.33C610.67 212.56 610.56 213.64 610.53 214.56C610.5 214.92 610.43 215.16 610.29 215.28C610.19 215.4 609.91 215.45 609.53 215.45H607.91C606.98 215.45 606.22 215.35 605.63 215.16C605.04 214.97 604.59 214.7 604.25 214.34C603.91 213.98 603.66 213.55 603.53 213.02C603.39 212.51 603.32 211.91 603.32 211.22C603.32 210.78 603.35 210.14 603.39 209.32C603.46 208.5 603.53 207.39 603.63 205.93C603.77 204.49 603.91 202.66 604.08 200.46C604.25 198.25 604.43 195.52 604.67 192.25C604.7 191.6 604.77 191.21 604.91 191.09C605.01 191 605.22 190.97 605.63 190.97H607.36C608.26 190.97 609.02 191.07 609.57 191.28C610.16 191.49 610.61 191.76 610.98 192.08C611.33 192.4 611.57 192.78 611.74 193.23C611.88 193.67 611.98 194.14 612.02 194.62C612.88 193.01 613.85 191.93 614.95 191.37C616.05 190.81 617.37 190.53 618.88 190.53C619.67 190.53 620.47 190.6 621.19 190.75C621.95 190.89 622.6 191.14 623.23 191.5C623.82 191.86 624.33 192.32 624.75 192.9C625.17 193.48 625.47 194.22 625.65 195.11C626.58 193.38 627.58 192.19 628.72 191.52C629.82 190.85 631.2 190.53 632.89 190.53C633.82 190.53 634.68 190.62 635.55 190.8C636.41 191.01 637.14 191.33 637.76 191.81C638.42 192.29 638.9 192.94 639.28 193.74C639.66 194.56 639.83 195.57 639.83 196.78C639.83 197.7 639.8 198.83 639.69 200.17C639.62 201.5 639.52 202.96 639.38 204.51C639.28 206.07 639.14 207.67 639 209.32C638.83 210.96 638.72 212.55 638.62 214.06C638.59 214.38 638.55 214.64 638.55 214.83C638.52 215 638.45 215.14 638.38 215.22C638.31 215.3 638.21 215.37 638.03 215.39C637.89 215.42 637.68 215.44 637.41 215.44H635.96C635.03 215.44 634.23 215.35 633.65 215.17C633.03 215 632.58 214.74 632.24 214.42C631.93 214.1 631.69 213.68 631.55 213.21C631.41 212.71 631.34 212.15 631.34 211.53C631.34 211.14 631.37 210.59 631.41 209.89C631.48 209.17 631.51 208.4 631.62 207.56C631.69 206.74 631.76 205.87 631.83 204.98C631.9 204.09 631.97 203.27 632.07 202.52C632.14 201.77 632.17 201.1 632.24 200.54C632.27 199.98 632.31 199.6 632.31 199.43C632.31 198.66 632.14 197.98 631.83 197.38C631.52 196.8 630.9 196.49 630 196.49C629.24 196.49 628.55 196.75 628 197.26C627.41 197.76 626.93 198.46 626.55 199.35C626.17 200.24 625.86 201.3 625.62 202.51C625.38 203.72 625.21 205.04 625.1 206.46C625.07 207.38 625 208.44 624.89 209.62C624.79 210.8 624.68 212.29 624.58 214.07C624.55 214.39 624.51 214.65 624.48 214.84C624.45 215.01 624.41 215.15 624.34 215.23C624.27 215.31 624.13 215.38 623.99 215.4C623.85 215.43 623.64 215.45 623.37 215.45H621.92C620.95 215.45 620.19 215.36 619.57 215.18C618.98 215.01 618.53 214.75 618.19 214.43C617.88 214.11 617.64 213.69 617.5 213.22C617.36 212.72 617.29 212.16 617.29 211.54C617.29 210.92 617.36 210.09 617.46 208.94C617.56 207.79 617.67 206.61 617.77 205.38C617.87 204.15 617.98 202.97 618.08 201.86C618.18 200.75 618.22 199.94 618.22 199.43C618.22 198.66 618.08 197.98 617.77 197.38C617.46 196.8 616.84 196.49 615.94 196.49C615.15 196.49 614.46 196.8 613.87 197.38C613.32 197.98 612.83 198.77 612.46 199.77C612.08 200.76 611.8 201.93 611.56 203.26C611.35 204.59 611.18 206 611.08 207.45Z" fill="#ED1C24"></path>
</svg>
