<svg width="1080" height="1080" viewBox="0 0 1080 1080" fill="none" xmlns="http://www.w3.org/2000/svg">
<path d="M322.59 647.99H318.25V645.51H322.59V639.92L325.69 636.2H328.17V645.51H335.62V647.99H328.17V667.23C328.17 670.95 329.62 672.82 332.51 672.82C333.59 672.82 334.48 672.7 335.18 672.45C335.88 672.2 336.54 671.91 337.16 671.58L337.78 672.82C337.45 673.07 337.07 673.34 336.63 673.63C336.19 673.92 335.67 674.19 335.05 674.44C334.43 674.69 333.71 674.89 332.88 675.06C332.05 675.22 331.1 675.31 330.03 675.31C327.84 675.31 326.05 674.67 324.66 673.39C323.27 672.11 322.58 670.06 322.58 667.25V648.01L322.59 647.99Z" fill="#B99F59"></path>
<path d="M376.42 674.67L374.25 671.88H373.94C373.32 672.67 372.31 673.43 370.9 674.18C369.49 674.92 367.61 675.3 365.25 675.3C364.38 675.3 363.43 675.16 362.4 674.9C361.37 674.63 360.39 674.17 359.48 673.5C358.57 672.84 357.8 671.95 357.18 670.83C356.56 669.71 356.25 668.31 356.25 666.61C356.25 664.91 356.68 663.51 357.55 662.39C358.42 661.27 359.58 660.38 361.03 659.72C362.48 659.06 364.15 658.59 366.06 658.32C367.96 658.05 369.97 657.92 372.08 657.92H373.94C373.94 655.77 373.77 654 373.44 652.61C373.11 651.22 372.65 650.15 372.08 649.38C371.5 648.62 370.81 648.09 370 647.8C369.19 647.51 368.33 647.37 367.42 647.37C365.68 647.37 364.22 647.74 363.05 648.49C361.87 649.23 361.05 650.62 360.6 652.65H357.81C357.81 651.57 357.87 650.57 358 649.64C358.12 648.71 358.58 647.85 359.36 647.06C359.73 646.69 360.26 646.36 360.94 646.07C361.62 645.78 362.38 645.55 363.2 645.39C364.03 645.23 364.91 645.1 365.84 645.02C366.77 644.94 367.71 644.9 368.66 644.9C370.07 644.9 371.42 645.05 372.72 645.37C374.02 645.68 375.18 646.3 376.2 647.23C377.21 648.16 378.02 649.49 378.62 651.2C379.22 652.92 379.52 655.16 379.52 657.93V674.68H376.42V674.67ZM373.94 660.4H372.08C368.98 660.4 366.55 660.97 364.79 662.11C363.03 663.25 362.15 664.75 362.15 666.61C362.15 667.6 362.32 668.47 362.65 669.22C362.98 669.97 363.41 670.59 363.95 671.08C364.49 671.58 365.11 671.94 365.81 672.17C366.51 672.4 367.26 672.51 368.04 672.51C369.57 672.51 370.78 672.13 371.67 671.36C372.56 670.6 373.31 669.74 373.93 668.78V660.4H373.94Z" fill="#B99F59"></path>
<path d="M402.32 647.99H397.98V645.51H402.32V639.92L405.42 636.2H407.9V645.51H415.35V647.99H407.9V667.23C407.9 670.95 409.35 672.82 412.24 672.82C413.32 672.82 414.21 672.7 414.91 672.45C415.61 672.2 416.27 671.91 416.89 671.58L417.51 672.82C417.18 673.07 416.8 673.34 416.36 673.63C415.92 673.92 415.4 674.19 414.78 674.44C414.16 674.69 413.44 674.89 412.61 675.06C411.78 675.22 410.83 675.31 409.76 675.31C407.57 675.31 405.78 674.67 404.39 673.39C403 672.11 402.31 670.06 402.31 667.25V648.01L402.32 647.99Z" fill="#B99F59"></path>
<path d="M447.16 674.67H441.58V641.16C441.58 639.3 441.32 637.8 440.8 636.66C440.28 635.52 439.09 634.95 437.23 634.95H435.99V633.71H441.57C442.64 633.71 443.54 633.8 444.27 633.99C444.99 634.18 445.57 634.55 446.01 635.11C446.45 635.67 446.74 636.43 446.91 637.41C447.08 638.38 447.16 639.63 447.16 641.16V674.67Z" fill="#B99F59"></path>
<path d="M476.79 674.67H471.21V652.95C471.21 651.09 470.95 649.59 470.43 648.45C469.91 647.31 468.72 646.74 466.86 646.74H465.62V645.5H471.2C472.28 645.5 473.18 645.59 473.9 645.78C474.62 645.97 475.2 646.34 475.64 646.9C476.07 647.46 476.37 648.22 476.54 649.2C476.71 650.17 476.79 651.42 476.79 652.95V674.67Z" fill="#B99F59"></path>
<path d="M574.67 652.95C574.67 651.09 574.41 649.59 573.89 648.45C573.37 647.31 572.18 646.74 570.32 646.74H569.08V645.5H574.66C576.23 645.5 577.42 645.73 578.23 646.18C579.04 646.64 579.6 647.34 579.94 648.29H580.25C580.87 647.5 581.84 646.74 583.17 645.99C584.49 645.24 586.31 644.87 588.63 644.87C590.49 644.87 592.11 645.27 593.5 646.08C594.89 646.89 596.04 647.97 596.98 649.34C597.91 650.7 598.61 652.31 599.09 654.15C599.56 655.99 599.8 657.97 599.8 660.08C599.8 662.19 599.56 664.17 599.09 666.01C598.61 667.85 597.89 669.45 596.92 670.82C595.95 672.18 594.73 673.27 593.26 674.08C591.79 674.89 590.04 675.29 588.02 675.29C586.28 675.29 584.79 675.09 583.55 674.7C582.31 674.31 581.21 673.88 580.26 673.43V686.46H574.68V652.95H574.67ZM580.26 670.95C581.21 671.41 582.19 671.83 583.21 672.22C584.22 672.61 585.21 672.81 586.16 672.81C587.57 672.81 588.75 672.48 589.73 671.82C590.7 671.16 591.5 670.26 592.12 669.12C592.74 667.98 593.2 666.64 593.49 665.09C593.78 663.54 593.92 661.87 593.92 660.1C593.92 658.33 593.78 656.66 593.52 655.11C593.25 653.56 592.82 652.21 592.22 651.08C591.62 649.94 590.88 649.04 589.99 648.38C589.1 647.72 588.04 647.39 586.79 647.39C585.92 647.39 585.16 647.49 584.49 647.7C583.83 647.91 583.24 648.19 582.72 648.54C582.2 648.89 581.74 649.29 581.32 649.75C580.91 650.21 580.55 650.66 580.26 651.11V670.97V670.95Z" fill="#B99F59"></path>
<path d="M638.43 674.67L636.26 671.88H635.95C635.33 672.67 634.32 673.43 632.91 674.18C631.5 674.92 629.62 675.3 627.26 675.3C626.39 675.3 625.44 675.16 624.41 674.9C623.38 674.63 622.4 674.17 621.49 673.5C620.58 672.84 619.81 671.95 619.19 670.83C618.57 669.71 618.26 668.31 618.26 666.61C618.26 664.91 618.69 663.51 619.56 662.39C620.43 661.27 621.59 660.38 623.04 659.72C624.49 659.06 626.16 658.59 628.07 658.32C629.97 658.05 631.98 657.92 634.09 657.92H635.95C635.95 655.77 635.78 654 635.45 652.61C635.12 651.22 634.66 650.15 634.09 649.38C633.51 648.62 632.82 648.09 632.01 647.8C631.2 647.51 630.34 647.37 629.43 647.37C627.69 647.37 626.23 647.74 625.06 648.49C623.88 649.23 623.06 650.62 622.61 652.65H619.82C619.82 651.57 619.88 650.57 620.01 649.64C620.13 648.71 620.59 647.85 621.37 647.06C621.74 646.69 622.27 646.36 622.95 646.07C623.63 645.78 624.39 645.55 625.21 645.39C626.04 645.23 626.92 645.1 627.85 645.02C628.78 644.94 629.72 644.9 630.67 644.9C632.08 644.9 633.43 645.05 634.73 645.37C636.03 645.68 637.19 646.3 638.21 647.23C639.22 648.16 640.03 649.49 640.63 651.2C641.23 652.92 641.53 655.16 641.53 657.93V674.68H638.43V674.67ZM635.95 660.4H634.09C630.99 660.4 628.56 660.97 626.8 662.11C625.04 663.25 624.16 664.75 624.16 666.61C624.16 667.6 624.33 668.47 624.66 669.22C624.99 669.97 625.42 670.59 625.96 671.08C626.5 671.58 627.12 671.94 627.82 672.17C628.52 672.4 629.27 672.51 630.05 672.51C631.58 672.51 632.79 672.13 633.68 671.36C634.57 670.6 635.32 669.74 635.94 668.78V660.4H635.95Z" fill="#B99F59"></path>
<path d="M682.02 667.22C682.02 668.54 681.74 669.7 681.18 670.7C680.62 671.69 679.87 672.53 678.92 673.21C677.97 673.89 676.82 674.41 675.48 674.76C674.13 675.11 672.7 675.29 671.17 675.29C668.69 675.29 666.66 675.07 665.09 674.64C663.52 674.21 662.34 673.6 661.55 672.81C660.76 672.02 660.31 671.13 660.18 670.14C660.06 669.15 659.99 667.87 659.99 666.29H661.23C661.56 668.32 662.43 669.91 663.84 671.07C665.25 672.23 667.27 672.81 669.92 672.81C672.28 672.81 674.01 672.4 675.1 671.57C676.2 670.74 676.74 669.71 676.74 668.47C676.74 667.23 676.27 666.18 675.34 665.34C674.41 664.49 673.01 663.68 671.15 662.89L667.43 661.34C665.07 660.39 663.24 659.26 661.94 657.96C660.64 656.66 659.99 654.99 659.99 652.97C659.99 651.65 660.25 650.49 660.77 649.49C661.29 648.5 662 647.66 662.91 646.98C663.82 646.3 664.9 645.78 666.14 645.43C667.38 645.08 668.75 644.9 670.23 644.9C672.59 644.9 674.53 645.12 676.06 645.55C677.59 645.98 678.75 646.6 679.54 647.38C680.32 648.17 680.78 649.06 680.9 650.05C681.02 651.04 681.09 652.33 681.09 653.9H679.85C679.52 651.87 678.66 650.28 677.27 649.12C675.88 647.96 673.95 647.38 671.47 647.38C669.44 647.38 667.9 647.79 666.85 648.62C665.8 649.45 665.27 650.48 665.27 651.72C665.27 652.8 665.7 653.78 666.57 654.67C667.44 655.56 668.66 656.34 670.23 657L673.95 658.55C676.6 659.63 678.6 660.81 679.97 662.09C681.34 663.37 682.02 665.09 682.02 667.24V667.22Z" fill="#B99F59"></path>
<path d="M704.82 647.99H700.48V645.51H704.82V639.92L707.92 636.2H710.4V645.51H717.85V647.99H710.4V667.23C710.4 670.95 711.85 672.82 714.74 672.82C715.82 672.82 716.71 672.7 717.41 672.45C718.11 672.2 718.77 671.91 719.39 671.58L720.01 672.82C719.68 673.07 719.3 673.34 718.86 673.63C718.42 673.92 717.9 674.19 717.28 674.44C716.66 674.69 715.94 674.89 715.11 675.06C714.28 675.22 713.33 675.31 712.26 675.31C710.07 675.31 708.28 674.67 706.89 673.39C705.5 672.11 704.81 670.06 704.81 667.25V648.01L704.82 647.99Z" fill="#B99F59"></path>
<path d="M758.65 674.67L756.48 671.88H756.17C755.55 672.67 754.54 673.43 753.13 674.18C751.72 674.92 749.84 675.3 747.48 675.3C746.61 675.3 745.66 675.16 744.63 674.9C743.6 674.63 742.62 674.17 741.71 673.5C740.8 672.84 740.03 671.95 739.41 670.83C738.79 669.71 738.48 668.31 738.48 666.61C738.48 664.91 738.91 663.51 739.78 662.39C740.65 661.27 741.81 660.38 743.26 659.72C744.71 659.06 746.38 658.59 748.29 658.32C750.19 658.05 752.2 657.92 754.31 657.92H756.17C756.17 655.77 756 654 755.67 652.61C755.34 651.22 754.88 650.15 754.31 649.38C753.73 648.62 753.04 648.09 752.23 647.8C751.42 647.51 750.56 647.37 749.65 647.37C747.91 647.37 746.45 647.74 745.28 648.49C744.1 649.23 743.28 650.62 742.83 652.65H740.04C740.04 651.57 740.1 650.57 740.23 649.64C740.35 648.71 740.81 647.85 741.59 647.06C741.96 646.69 742.49 646.36 743.17 646.07C743.85 645.78 744.61 645.55 745.43 645.39C746.26 645.23 747.14 645.1 748.07 645.02C749 644.94 749.94 644.9 750.89 644.9C752.3 644.9 753.65 645.05 754.95 645.37C756.25 645.68 757.41 646.3 758.43 647.23C759.44 648.16 760.25 649.49 760.85 651.2C761.45 652.92 761.75 655.16 761.75 657.93V674.68H758.65V674.67ZM756.17 660.4H754.31C751.21 660.4 748.78 660.97 747.02 662.11C745.26 663.25 744.38 664.75 744.38 666.61C744.38 667.6 744.55 668.47 744.88 669.22C745.21 669.97 745.64 670.59 746.18 671.08C746.72 671.58 747.34 671.94 748.04 672.17C748.74 672.4 749.49 672.51 750.27 672.51C751.8 672.51 753.01 672.13 753.9 671.36C754.79 670.6 755.54 669.74 756.16 668.78V660.4H756.17Z" fill="#B99F59"></path>
<path d="M522.94 664.83C528.038 664.83 532.17 660.697 532.17 655.6C532.17 650.502 528.038 646.37 522.94 646.37C517.842 646.37 513.71 650.502 513.71 655.6C513.71 660.697 517.842 664.83 522.94 664.83Z" fill="#B99F59"></path>
<path d="M240.98 444.09V596.67H227.16V430.3C227.16 421.72 225.27 414.98 221.49 410.08C217.71 405.17 211.31 402.73 202.28 402.73H200.9V393.54H220.25C230.57 393.54 239 395.02 245.54 397.98C252.08 400.94 257.56 405.6 261.98 411.92L357.07 534.47V393.54H370.89V596.67H358.17L240.97 444.09H240.98Z" fill="#8E3552"></path>
<path d="M551.41 588.86C542.01 583.45 534.36 572.88 528.47 557.15L522.12 539.98H448.59L425.14 596.92H410.76L493.09 393.54H505.53L567.44 557.15C574.44 576.14 584.02 586.35 596.19 587.78V595.44C592.87 596.46 588.45 596.97 582.92 596.97C571.32 596.97 560.81 594.26 551.41 588.85M454.39 526.2H516.86L486.45 446.23L454.39 526.2Z" fill="#8E3552"></path>
<path d="M761.9 433.61C761.9 423.13 760.61 415.38 758.03 410.34C755.45 405.31 750.29 402.78 742.55 402.78H739.78V393.54H855.59C871.25 393.54 879.09 401.76 879.09 418.2V444.4H870.79C870.79 431.45 867.89 422.06 862.09 416.2C856.28 410.35 847.67 407.42 836.25 407.42H797.83V486.02H858.64V499.89H797.83V596.99H761.9V433.62V433.61Z" fill="#8E3552"></path>
<path d="M636.85 445.04H675.4V557.65C675.4 566.73 676.63 574.04 679.11 579.58C681.58 585.13 687.26 587.9 696.16 587.9H699.13V596.97H663.54C658.4 596.97 654.1 596.36 650.64 595.15C647.18 593.94 644.41 591.82 642.34 588.8C640.26 585.78 638.83 581.74 638.04 576.7C637.25 571.66 636.85 565.31 636.85 557.64V445.03V445.04Z" fill="#8E3552"></path>
<path d="M675.4 416.53C675.4 421.78 673.82 425.91 670.66 428.93C667.5 431.95 663.64 433.47 659.1 433.47C651.58 433.47 646 431.15 642.35 426.51C638.69 421.87 636.86 416.53 636.86 410.48C636.86 405.24 638.44 401.1 641.6 398.08C644.76 395.06 648.62 393.54 653.17 393.54C660.68 393.54 666.26 395.86 669.92 400.5C673.58 405.14 675.41 410.48 675.41 416.53H675.4Z" fill="#8E3552"></path>
</svg>
